# xmcd
#
# Track frame offsets:
#	150
#	12989
#	22283
#	35073
#	45982
#	63131
#	75374
#	90730
#	104290
#	123512
#	145407
#	154832
#	168164
#	181927
#	204958
#	216584
#	237958
#	251563
#	264696
#	276835
#	290166
#	297189
#	314313
#	330312
#
# Disc length: 4624 seconds
#
# Revision: 0
# Processed by: cddbd v1.5.2PL0 Copyright (c) Steve Scherf et al.
# Submitted via: EZCDAudioConverter 1.3.4.1
#
DISCID=5f120e18
DTITLE=Graham Bond Organization - Wade In The Water 3/4
DYEAR=1900
DGENRE=
TTITLE0=Tell Me (I'm Gonna Love Again)
TTITLE1=Love Comes Shining Through
TTITLE2=Please Don't Say
TTITLE3=Like A Baby
TTITLE4=Walking In The Park [Stereo Remix]
TTITLE5=Don't Let Go [Remix]
TTITLE6=My Heart's In Little Pieces [Stereo Remix]
TTITLE7=The Night Time Is The Right Time [Remix]
TTITLE8=What'd I Say [Version 2 - Remix]
TTITLE9=Have You Ever Loved A Woman [Remix]
TTITLE10=Who's Afraid Of Virginia Woolf [Stereo Remix]
TTITLE11=Hear Me Calling Your Name [Stereo Remix]
TTITLE12=Last Night [Stereo Remix]
TTITLE13=Baby Can It Be True [Stereo Remix]
TTITLE14=Dick's Instrumental [Stereo Remix]
TTITLE15=Camels And Elephants [Stereo Remix]
TTITLE16=Lease On Love [Stereo Remix]
TTITLE17=Cold Rain [Stereo Remix]
TTITLE18=Positive aka HHCK Blues [Version 1 - Master Take - Remix]
TTITLE19=Positive aka HHCK Blues [Version 2 - Alternate Take]
TTITLE20=When Johnny Comes Marching Home [Stereo Remix]
TTITLE21=Good Good Loving [Stereo Remix]
TTITLE22=Only Sixteen [Stereo Remix]
TTITLE23=St. James Infirmary
EXTD=
EXTT0=
EXTT1=
EXTT2=
EXTT3=
EXTT4=
EXTT5=
EXTT6=
EXTT7=
EXTT8=
EXTT9=
EXTT10=
EXTT11=
EXTT12=
EXTT13=
EXTT14=
EXTT15=
EXTT16=
EXTT17=
EXTT18=
EXTT19=
EXTT20=
EXTT21=
EXTT22=
EXTT23=
PLAYORDER=
